ffmpeg started on 2025-06-27 at 12:09:01
Report written to "D:\Convert\FFMetrics\reports\psnr_report-6.txt"
Log level: 32
Command line:
ffmpeg -hide_banner -nostdin -i "G:\\\xc0\xed\xe8\xec\xe5\\[\xd2\xee\xef]\\\xcf\xee\xe2\xe5\xeb\xe8\xf2\xe5\xeb\xfc\\\xd2\xc2-3\\Special\\[Ohys-Raws] Overlord III - Sp.07 (BDRip-720p)_HEVC.mkv" -i "G:\\\xc0\xed\xe8\xec\xe5\\[\xd2\xee\xef]\\\xcf\xee\xe2\xe5\xeb\xe8\xf2\xe5\xeb\xfc\\\xd2\xc2-3\\Special\\[Ohys-Raws] Overlord III - Sp.07 (BDRip-720p).mkv" -lavfi "[0:v]settb=AVTB,setpts=PTS-STARTPTS,format=pix_fmts=yuv420p10,fps=24000/1001,scale=1280:720:flags=bicubic[main];[1:v]settb=AVTB,setpts=PTS-STARTPTS,format=pix_fmts=yuv420p,fps=24000/1001,scale=1280:720:flags=bicubic[ref];[main][ref]psnr=eof_action=endall:stats_file='D\\:/Convert/FFMetrics/logs/psnr_logfile-6.txt'" -f null -
Input #0, matroska,webm, from 'G:\Аниме\[Топ]\Повелитель\ТВ-3\Special\[Ohys-Raws] Overlord III - Sp.07 (BDRip-720p)_HEVC.mkv':
  Metadata:
    ENCODER         : Lavf61.7.100
  Duration: 00:01:32.12, start: -0.017000, bitrate: 443 kb/s
  Stream #0:0(jpn): Video: hevc (Main 10), yuv420p10le(tv, bt709, progressive), 1280x720 [SAR 1:1 DAR 16:9], 23.98 fps, 23.98 tbr, 1k tbn (default)
      Metadata:
        ENCODER         : Lavc61.19.100 libx265
        BPS             : 244262
        DURATION        : 00:01:32.091708333
        NUMBER_OF_FRAMES: 2208
        NUMBER_OF_BYTES : 2811796
        _STATISTICS_WRITING_APP: mkvpropedit v66.0.0 ('Josie') 64-bit
        _STATISTICS_WRITING_DATE_UTC: 2025-06-27 08:32:30
        _STATISTICS_TAGS: BPS DURATION NUMBER_OF_FRAMES NUMBER_OF_BYTES
  Stream #0:1(jpn): Audio: aac (LC), 48000 Hz, stereo, fltp (default)
      Metadata:
        ENCODER         : Lavc61.19.100 aac
        BPS             : 195161
        DURATION        : 00:01:32.096000000
        NUMBER_OF_FRAMES: 4318
        NUMBER_OF_BYTES : 2246700
        _STATISTICS_WRITING_APP: mkvpropedit v66.0.0 ('Josie') 64-bit
        _STATISTICS_WRITING_DATE_UTC: 2025-06-27 08:32:30
        _STATISTICS_TAGS: BPS DURATION NUMBER_OF_FRAMES NUMBER_OF_BYTES
Input #1, matroska,webm, from 'G:\Аниме\[Топ]\Повелитель\ТВ-3\Special\[Ohys-Raws] Overlord III - Sp.07 (BDRip-720p).mkv':
  Metadata:
    encoder         : libebml v1.2.3 + libmatroska v1.3.0
    creation_time   : 2019-10-11T21:04:14.000000Z
  Duration: 00:01:32.10, start: 0.000000, bitrate: 1014 kb/s
  Stream #1:0(jpn): Video: h264 (Main), yuv420p(progressive), 1280x720 [SAR 1:1 DAR 16:9], 23.98 fps, 23.98 tbr, 1k tbn (default)
  Stream #1:1(jpn): Audio: aac (LC), 48000 Hz, stereo, fltp (default)
Stream mapping:
  Stream #0:0 (hevc) -> settb:default
  Stream #1:0 (h264) -> settb:default
  psnr:default -> Stream #0:0 (wrapped_avframe)
  Stream #0:1 -> #0:1 (aac (native) -> pcm_s16le (native))
[swscaler @ 000002a2fccf0680] No accelerated colorspace conversion found from yuv420p to bgr48le.
[swscaler @ 000002a2fcd92400] No accelerated colorspace conversion found from yuv420p to bgr48le.
[swscaler @ 000002a2fcfaaa40] No accelerated colorspace conversion found from yuv420p to bgr48le.
[swscaler @ 000002a2fcffcc80] No accelerated colorspace conversion found from yuv420p to bgr48le.
[swscaler @ 000002a2fd1a97c0] No accelerated colorspace conversion found from yuv420p to bgr48le.
[swscaler @ 000002a2fd2ea240] No accelerated colorspace conversion found from yuv420p to bgr48le.
[swscaler @ 000002a2fd45e7c0] No accelerated colorspace conversion found from yuv420p to bgr48le.
[swscaler @ 000002a2fd4c3040] No accelerated colorspace conversion found from yuv420p to bgr48le.
[swscaler @ 000002a2fd54e740] No accelerated colorspace conversion found from yuv420p to bgr48le.
[swscaler @ 000002a2fd5b7bc0] No accelerated colorspace conversion found from yuv420p to bgr48le.
[swscaler @ 000002a2fd613040] No accelerated colorspace conversion found from yuv420p to bgr48le.
[swscaler @ 000002a2fd681040] No accelerated colorspace conversion found from yuv420p to bgr48le.
[swscaler @ 000002a2fd704040] No accelerated colorspace conversion found from yuv420p to bgr48le.
[swscaler @ 000002a2fd76d040] No accelerated colorspace conversion found from yuv420p to bgr48le.
[swscaler @ 000002a2fd7ca040] No accelerated colorspace conversion found from yuv420p to bgr48le.
[swscaler @ 000002a2fd83e040] No accelerated colorspace conversion found from yuv420p to bgr48le.
Output #0, null, to 'pipe:':
  Metadata:
    encoder         : Lavf61.7.100
  Stream #0:0: Video: wrapped_avframe, yuv420p10le(tv, bt709, progressive), 1280x720 [SAR 1:1 DAR 16:9], q=2-31, 200 kb/s, 23.98 fps, 23.98 tbn
      Metadata:
        encoder         : Lavc61.19.100 wrapped_avframe
  Stream #0:1(jpn): Audio: pcm_s16le, 48000 Hz, stereo, s16, 1536 kb/s (default)
      Metadata:
        _STATISTICS_TAGS: BPS DURATION NUMBER_OF_FRAMES NUMBER_OF_BYTES
        BPS             : 195161
        DURATION        : 00:01:32.096000000
        NUMBER_OF_FRAMES: 4318
        NUMBER_OF_BYTES : 2246700
        _STATISTICS_WRITING_APP: mkvpropedit v66.0.0 ('Josie') 64-bit
        _STATISTICS_WRITING_DATE_UTC: 2025-06-27 08:32:30
        encoder         : Lavc61.19.100 pcm_s16le
frame=   75 fps=0.0 q=-0.0 size=N/A time=00:00:03.12 bitrate=N/A speed=6.23x    frame=  162 fps=157 q=-0.0 size=N/A time=00:00:06.75 bitrate=N/A speed=6.56x    frame=  251 fps=163 q=-0.0 size=N/A time=00:00:10.46 bitrate=N/A speed=6.82x    frame=  350 fps=170 q=-0.0 size=N/A time=00:00:14.59 bitrate=N/A speed=7.08x    frame=  440 fps=171 q=-0.0 size=N/A time=00:00:18.35 bitrate=N/A speed=7.13x    frame=  527 fps=171 q=-0.0 size=N/A time=00:00:21.98 bitrate=N/A speed=7.13x    frame=  611 fps=169 q=-0.0 size=N/A time=00:00:25.48 bitrate=N/A speed=7.07x    frame=  702 fps=171 q=-0.0 size=N/A time=00:00:29.27 bitrate=N/A speed=7.12x    frame=  801 fps=173 q=-0.0 size=N/A time=00:00:33.40 bitrate=N/A speed= 7.2x    frame=  895 fps=174 q=-0.0 size=N/A time=00:00:37.32 bitrate=N/A speed=7.25x    frame=  987 fps=174 q=-0.0 size=N/A time=00:00:41.16 bitrate=N/A speed=7.27x    frame= 1077 fps=174 q=-0.0 size=N/A time=00:00:44.91 bitrate=N/A speed=7.26x    frame= 1169 fps=175 q=-0.0 size=N/A time=00:00:48.75 bitrate=N/A speed=7.28x    frame= 1257 fps=174 q=-0.0 size=N/A time=00:00:52.42 bitrate=N/A speed=7.28x    frame= 1355 fps=175 q=-0.0 size=N/A time=00:00:56.51 bitrate=N/A speed=7.31x    frame= 1447 fps=176 q=-0.0 size=N/A time=00:01:00.35 bitrate=N/A speed=7.32x    frame= 1537 fps=176 q=-0.0 size=N/A time=00:01:04.10 bitrate=N/A speed=7.32x    frame= 1633 fps=176 q=-0.0 size=N/A time=00:01:08.10 bitrate=N/A speed=7.34x    frame= 1721 fps=176 q=-0.0 size=N/A time=00:01:11.78 bitrate=N/A speed=7.33x    frame= 1819 fps=177 q=-0.0 size=N/A time=00:01:15.86 bitrate=N/A speed=7.37x    frame= 1902 fps=176 q=-0.0 size=N/A time=00:01:19.32 bitrate=N/A speed=7.33x    frame= 2004 fps=177 q=-0.0 size=N/A time=00:01:23.58 bitrate=N/A speed=7.37x    frame= 2098 fps=177 q=-0.0 size=N/A time=00:01:27.50 bitrate=N/A speed=7.39x    frame= 2188 fps=177 q=-0.0 size=N/A time=00:01:31.25 bitrate=N/A speed=7.38x    [Parsed_psnr_10 @ 000002a2f0626700] PSNR y:44.711302 u:48.382421 v:48.776338 average:45.660889 min:41.259728 max:56.103654
[out#0/null @ 000002a2f064e940] video:949KiB audio:17272KiB subtitle:0KiB other streams:0KiB global headers:0KiB muxing overhead: unknown
frame= 2208 fps=178 q=-0.0 Lsize=N/A time=00:01:32.09 bitrate=N/A speed=7.41x    
